<svg id="cc26d5b7-3cf5-49df-958b-5ec401a9c7a8" data-name="6af5a134-bef2-4f84-be2a-41c8a902301a" xmlns="http://www.w3.org/2000/svg" width="50" height="50" viewBox="0 0 50 50"><title>aceptar</title><path d="M27.123,22.64331a1.1853,1.1853,0,0,0-.99512.51563v3.28613a1.93948,1.93948,0,0,0,.85156.2041c0.876,0,1.415-.50391,1.415-2.08691C28.39453,23.219,27.83105,22.64331,27.123,22.64331Z" style="fill:#00b7a6"/><path d="M37.01172,26.14526a0.651,0.651,0,0,0,.73242.65918,1.31205,1.31205,0,0,0,1.043-.47949V25.366C37.59961,25.282,37.01172,25.55786,37.01172,26.14526Z" style="fill:#00b7a6"/><path d="M20.63135,22.5354A1.30472,1.30472,0,0,0,19.312,23.92651h2.38672V23.74683A1.01007,1.01007,0,0,0,20.63135,22.5354Z" style="fill:#00b7a6"/><path d="M7.83936,20.94019H7.7915c-0.144.71973-.32373,1.40332-0.62354,2.4707L6.82031,24.63452H8.79883L8.4751,23.45874C8.15137,22.29565,7.9834,21.68384,7.83936,20.94019Z" style="fill:#00b7a6"/><path d="M25,1A24,24,0,1,0,49,25V24.99994A24,24,0,0,0,25,1ZM9.74658,28.07593L9.21875,26.14526H6.40039l-0.54,1.93066H4.01367l2.54248-8.40674H9.11084l2.55469,8.40674H9.74658Zm5.18506-1.35547a1.30842,1.30842,0,0,0,1.15137-.65869l1.15137,1.06689a2.76894,2.76894,0,0,1-2.4707,1.0791c-1.835,0-2.95068-1.00684-2.95068-3.45361,0-2.38672,1.29541-3.58594,3.13037-3.58594a2.77533,2.77533,0,0,1,2.33887.9834L16.0708,23.303a1.29955,1.29955,0,0,0-1.12744-.64746c-0.7793,0-1.2832.47949-1.2832,1.95459C13.66016,26.04956,14.08008,26.72046,14.93164,26.72046Zm8.38623-1.59424h-4.0415A1.46733,1.46733,0,0,0,20.93115,26.781a2.0537,2.0537,0,0,0,1.4873-.61133l0.7915,1.2832a3.5452,3.5452,0,0,1-2.48242.75488c-2.13477,0-3.22656-1.19922-3.22656-3.5376,0-2.19482,1.22363-3.502,3.17822-3.502a2.53276,2.53276,0,0,1,2.72266,2.74658A8.147,8.147,0,0,1,23.31787,25.12622Zm3.87744,2.98584a4.68991,4.68991,0,0,1-1.043-.10742v2.39844H24.353V21.3h1.33154l0.38379,0.57568h0.04785a2.05512,2.05512,0,0,1,1.61914-.69531c1.4873,0,2.50684,1.11523,2.50684,3.22607C30.24219,26.90112,28.82617,28.11206,27.19531,28.11206Zm6.1084,0.02441c-1.16309,0-2.00293-.58789-2.00293-2.231V22.67944H30.4375V21.552l0.875-.35986,0.624-1.59521h1.15137V21.3H34.7793v1.37939H33.08789v3.27393a0.63859,0.63859,0,0,0,.707.70752,1.59562,1.59562,0,0,0,.92383-0.2998l0.46777,1.35547A3.16,3.16,0,0,1,33.30371,28.13647Zm7.84668-.2041a1.6577,1.6577,0,0,1-.90039.22754,1.25294,1.25294,0,0,1-1.22266-.73145H38.97852a2.02184,2.02184,0,0,1-1.72656.75586A1.84967,1.84967,0,0,1,35.249,26.31323c0-1.55908,1.40332-2.27881,3.53809-2.17041V23.615a0.86015,0.86015,0,0,0-.97168-0.9834,1.19161,1.19161,0,0,0-1.16309.76758l-1.2832-.94775a2.80321,2.80321,0,0,1,2.43457-1.271c1.72754,0,2.68652.59961,2.68652,2.24268v2.71045a0.4434,0.4434,0,0,0,.46777.55176h0.19238v1.24707Zm4.83594-4.9292a4.27711,4.27711,0,0,0-.7793-0.06006,2.64654,2.64654,0,0,0-1.583.54v4.59277h-1.7998V21.3h1.416l0.37109,0.99561h0.04883a1.80229,1.80229,0,0,1,1.75-1.13965,2.85609,2.85609,0,0,1,.57617.06006v1.78711Z" style="fill:#00b7a6"/></svg>