<svg id="ee342aea-19e3-42d2-8e6f-d84f81e1783f" data-name="Layer 1" xmlns="http://www.w3.org/2000/svg" width="33" height="33" viewBox="0 0 33 33"><title>info</title><path d="M15.44627,24.63328a2.48482,2.48482,0,0,1-1.1464-.28384,1.56442,1.56442,0,0,1-.7763-0.92374A4.03558,4.03558,0,0,1,13.339,22.181a10.28219,10.28219,0,0,1,.11133-1.61479q0.12337-.86206.332-1.79934,0.20912-.93728.45635-1.79934,0.24673-.86206.49246-1.62683,0.24673-.76427.46839-1.2818a2.23851,2.23851,0,0,1,.88763-1.13436,2.3812,2.3812,0,0,1,1.1464-.39417,1.20159,1.20159,0,0,1,.88763.27181,0.79885,0.79885,0,0,1,.15947.88663q-0.24673.78984-.52957,1.72612-0.28284.93578-.55465,1.9227-0.2708.98542-.5055,1.94677T16.3339,21.05867a1.40415,1.40415,0,0,0,.04915.86356,0.418,0.418,0,0,0,.345.2708,0.57027,0.57027,0,0,0,.40721-0.24673,2.64872,2.64872,0,0,0,.38213-0.62786c0.11434-.25476.22166-0.52656,0.31995-0.81341q0.14744-.43178.24673-0.80138a1.78112,1.78112,0,0,1,.20962-0.53057,0.21268,0.21268,0,0,1,.19658-0.1354,0.23656,0.23656,0,0,1,.11133.22166,1.63135,1.63135,0,0,1-.07422.56768c-0.04915.24573-.13941,0.63689-0.2708,1.17047a10.22093,10.22093,0,0,1-.54261,1.60175,5.12564,5.12564,0,0,1-.89967,1.41821A1.76837,1.76837,0,0,1,15.44627,24.63328Zm4.2155-14.51806a1.71154,1.71154,0,0,1-.51754,1.25673,1.68371,1.68371,0,0,1-1.23266.51754,1.767,1.767,0,0,1-1.77527-1.77426,1.68371,1.68371,0,0,1,.51754-1.23266A1.71218,1.71218,0,0,1,17.91158,8.365,1.76725,1.76725,0,0,1,19.66177,10.11521Z" style="fill:#fff"/><path d="M16.5,32.50065a16.00065,16.00065,0,1,1,16-16.0013A16.01861,16.01861,0,0,1,16.5,32.50065ZM16.5,2.493A14.007,14.007,0,1,0,30.50633,16.49935,14.02249,14.02249,0,0,0,16.5,2.493Z" style="fill:#fff"/></svg>