<svg id="9b15d788-8658-4c2c-9736-46fef51a0489" data-name="Layer 1" xmlns="http://www.w3.org/2000/svg" width="50" height="80" viewBox="0 0 50 80"><title>Untitled-8</title><path d="M31.69168,7.11174a6.48433,6.48433,0,1,1-12.9665,0,6.4845,6.4845,0,1,1,12.9665,0h0Zm0,0" style="fill:#00b8a6"/><path d="M39.48231,31.91c0.58629-2.461-2.76823-12.59969-2.76823-12.59969-0.36691-.95617-2.14444-3.88121-7.15105-3.90627l-9.77195.02507c-4.8499-.26961-6.64006,2.50809-7.07892,3.97831,0,0-3.25732,10.20143-2.7181,12.50258,0.35428,1.508,3.05984,3.35768,5.88758,4.7152L9.9314,54.78636,18.65,54.7613l3.16011,22.4A2.47535,2.47535,0,0,0,24.60338,79.5h0.20685a2.48617,2.48617,0,0,0,2.80583-2.33875l3.157-22.4,9.29549,0.01253L34.4004,36.22064c2.52053-1.29791,4.76208-2.95,5.08191-4.31069h0Zm0,0" style="fill:#00b8a6"/></svg>