<svg id="be84be35-f368-4b1c-a783-b4541ddd81a3" data-name="Layer 1" xmlns="http://www.w3.org/2000/svg" width="300" height="300" viewBox="0 0 300 300"><title>cansado</title><path d="M150,0A150,150,0,1,0,300,150,150.00117,150.00117,0,0,0,150,0ZM84.375,112.5a18.75,18.75,0,0,1,37.5,0v18.75h-37.5V112.5ZM203.4023,214.3623a9.36529,9.36529,0,0,1-12.8076-3.4209,46.86687,46.86687,0,0,0-81.185,0,9.37451,9.37451,0,1,1-16.2295-9.3877,65.60987,65.60987,0,0,1,113.6382,0A9.36244,9.36244,0,0,1,203.4023,214.3623ZM215.625,131.25h-37.5V112.5a18.75,18.75,0,0,1,37.5,0v18.75Z" style="fill:#8d8c8c"/></svg>