<svg id="bcd63f8b-1044-4f57-acad-b1d789ec9b68" data-name="Layer 1" xmlns="http://www.w3.org/2000/svg" width="300" height="300" viewBox="0 0 300 300"><title>feliz</title><path d="M150.002,0A150,150,0,1,0,300,150,150.00224,150.00224,0,0,0,150.002,0Zm28.121,93.75a18.7505,18.7505,0,0,1,37.501,0V112.5a18.7505,18.7505,0,0,1-37.501,0V93.75Zm-93.747,0a18.75,18.75,0,0,1,37.5,0V112.5a18.75,18.75,0,0,1-37.5,0V93.75ZM228.2285,181.6406a84.38734,84.38734,0,0,1-156.4521,0,9.37231,9.37231,0,1,1,17.37594-7.0312,65.64374,65.64374,0,0,0,121.69726,0A9.37369,9.37369,0,1,1,228.2285,181.6406Z" style="fill:#ff6b0b"/></svg>