<svg id="a0ec5b4a-6f52-442d-bc9b-d6b6d801e2d7" data-name="Layer 1" xmlns="http://www.w3.org/2000/svg" width="300" height="300" viewBox="0 0 300 300"><title>frustrado</title><path d="M150,0A150,150,0,1,0,300,150,150.00117,150.00117,0,0,0,150,0ZM84.375,112.5l37.5-18.75V112.5A18.75,18.75,0,0,1,84.375,112.5Zm112.5,79.002h-93.75a9.375,9.375,0,0,1,0-18.75h93.75A9.375,9.375,0,0,1,196.875,191.502Zm0-60.252a18.75139,18.75139,0,0,1-18.75-18.75V93.75l37.5,18.75A18.7514,18.7514,0,0,1,196.875,131.25Z" style="fill:#98dae9"/></svg>