<svg id="c8128d57-63f5-46b2-9d3b-61f97596c3b0" data-name="Layer 1" xmlns="http://www.w3.org/2000/svg" width="300" height="300" viewBox="0 0 300 300"><title>hambriento</title><path d="M150,0A150,150,0,1,0,300,150,150.00117,150.00117,0,0,0,150,0Zm28.125,93.75a18.75,18.75,0,0,1,37.5,0V112.5a18.75,18.75,0,0,1-37.5,0V93.75Zm-93.75,0a18.75,18.75,0,0,1,37.5,0V112.5a18.75,18.75,0,0,1-37.5,0V93.75ZM233.9453,196.1895a9.37306,9.37306,0,0,1-13.2295-.8291c-1.7031-1.9317-3.8086-4.2989-6.1972-6.9532-2.2071-2.4414-3.7373-3.9365-7.2247-3.9365s-5.0175,1.4951-7.2138,3.9316c-2.7383,3.0342-9.1465,10.1309-21.1416,10.1309-12.001,0-18.4092-7.0967-21.1475-10.126-2.1963-2.4414-3.7265-3.9365-7.2168-3.9365-2.7597,0-6.3076,2.9297-7.2192,3.9365-0.9351,1.044-9.4771,10.126-21.1348,10.126-11.6616,0-20.2031-9.082-21.1396-10.126-1.1665-1.2412-4.5518-3.9365-7.2188-3.9365-3.06639,0-4.43016,1.2061-6.77,3.5195l-2.16553,2.0918c-1.85108,1.7715-4.12451,3.9453-6.31934,5.9688A9.37361,9.37361,0,1,1,65.8994,182.2676c2.1065-1.9463,4.2896-4.0362,6.0654-5.7315l1.94145-1.872c2.93408-2.9024,9.03857-8.9434,19.95555-8.9434,11.6621,0,20.2017,9.0859,21.1348,10.126,1.1675,1.2431,4.5576,3.9365,7.2236,3.9365,2.7603,0,6.3062-2.9297,7.2197-3.9365,0.9331-1.0401,9.4727-10.126,21.1343-10.126,12.0059,0,18.4141,7.0986,21.1426,10.126,2.207,2.4433,3.7344,3.9365,7.2217,3.9365,3.4814,0,5.0088-1.4932,7.2158-3.9365,2.7285-3.0274,9.1279-10.126,21.1396-10.126,12.003,0,18.4024,7.0986,21.1397,10.1299,2.4434,2.708,4.6045,5.1299,6.3535,7.1094A9.38516,9.38516,0,0,1,233.9453,196.1895Z" style="fill:#5d5d5d"/></svg>