<svg id="de75f37f-623f-444e-801d-53b34de4f1c7" data-name="Layer 1" xmlns="http://www.w3.org/2000/svg" width="300" height="300" viewBox="0 0 300 300"><title>regular</title><path d="M150,0A150,150,0,1,0,300,150,150.00117,150.00117,0,0,0,150,0Zm28.125,93.75a18.75,18.75,0,0,1,37.5,0V112.5a18.75,18.75,0,0,1-37.5,0V93.75Zm-93.75,0a18.75,18.75,0,0,1,37.5,0V112.5a18.75,18.75,0,0,1-37.5,0V93.75Zm140.5342,99.0781a9.35483,9.35483,0,0,1-10.6123,7.9551l-131.2466-18.75a9.37277,9.37277,0,1,1,2.65479-18.5566l131.248,18.75A9.36793,9.36793,0,0,1,224.9092,192.8281Z" style="fill:#78bfa5"/></svg>