<svg id="0c319ced-5474-4457-84d6-2a90b32c300e" data-name="Layer 1" xmlns="http://www.w3.org/2000/svg" width="300" height="300" viewBox="0 0 300 300"><title>Increible</title><path d="M150.0771,0.499A150.0005,150.0005,0,1,0,300.07619,150.5,150.00221,150.00221,0,0,0,150.0771.499Zm28.1241,112.5015a18.75,18.75,0,1,1,37.5,0v18.75h-37.5v-18.75Zm-93.749,0a18.75,18.75,0,1,1,37.5,0v18.75H84.45215v-18.75ZM228.3076,182.1406a84.38957,84.38957,0,0,1-156.4551,0A9.3655,9.3655,0,0,1,77.023,169.9365a9.20977,9.20977,0,0,1,3.42529-.6836c3.74024-.0351,135.33786.0801,138.96776,0a9.215,9.215,0,0,1,3.7178.6836A9.37394,9.37394,0,0,1,228.3076,182.1406Z" style="fill:#f1ce60"/></svg>