<svg id="14493f77-6d21-4d69-ab8d-bc6e298fc01e" data-name="Layer 1" xmlns="http://www.w3.org/2000/svg" xmlns:xlink="http://www.w3.org/1999/xlink" width="65" height="102" viewBox="0 0 65 102"><defs><linearGradient id="40539080-3e8d-4783-9843-048b3a6b44b1" x1="32.5" y1="101.5" x2="32.5" y2="0.5" gradientUnits="userSpaceOnUse"><stop offset="0" stop-color="#fff"/><stop offset="1" stop-color="#bababa"/></linearGradient><linearGradient id="a30bc1cc-4d9a-4f91-baef-d8a974dbf870" x1="6.93181" y1="45.73339" x2="57.67478" y2="45.73339" gradientUnits="userSpaceOnUse"><stop offset="0" stop-color="#43c1a6" stop-opacity="0.4"/><stop offset="1" stop-color="#43c1a6"/></linearGradient></defs><title>Untitled-2</title><path d="M1.10935,5.00045s30.6312-10.126,62.7813,0L53.00518,96.894A48.86158,48.86158,0,0,1,32.15941,101.5a53.33535,53.33535,0,0,1-21.43034-4.606Z" style="fill:url(#40539080-3e8d-4783-9843-048b3a6b44b1)"/><path d="M4.40031,8.03826s26.32764-7.59451,55.69309,0A119.56647,119.56647,0,0,1,4.40031,8.03826Z" style="fill:#f4f0ef;opacity:0.7000000000000001"/><path d="M6.93181,45.50451s22.64328,9.61971,50.743,0L51.32624,94.82007S44.48108,99.3557,32.15941,99.3557s-20.16089-4.53564-20.16089-4.53564Z" style="fill:#43c1a6"/><path d="M6.93181,45.50451s8.9711,4.27228,25.39942,4.27228,25.34355-4.27228,25.34355-4.27228S50.68153,41.69,32.33123,41.69C13.71776,41.69,6.93181,45.50451,6.93181,45.50451Z" style="fill:url(#a30bc1cc-4d9a-4f91-baef-d8a974dbf870)"/></svg>