<svg id="6af5a134-bef2-4f84-be2a-41c8a902301a" data-name="Layer 1" xmlns="http://www.w3.org/2000/svg" width="50" height="50" viewBox="0 0 50 50"><title>Untitled-1</title><path d="M22.3382,23.03906a1.30472,1.30472,0,0,0-1.31934,1.39111h2.38672V24.25049A1.01007,1.01007,0,0,0,22.3382,23.03906Z" style="fill:#00b7a6"/><path d="M25,1A24,24,0,1,0,49,24.99994,24,24,0,0,0,25,1ZM14.32111,28.58057H9.2V20.17285h4.97705v1.51123h-3.1543v1.87061h2.71045v1.51123H11.02277v2.00293h3.29834v1.51172Zm4.105-.06055a2.18768,2.18768,0,0,1-.86328.168,1.61849,1.61849,0,0,1-1.76318-1.77539V19.48926h1.811V26.4458a0.54388,0.54388,0,0,0,.564.6709,1.04074,1.04074,0,0,0,.25146-0.02441V28.52Zm6.59863-2.89014h-4.0415A1.46694,1.46694,0,0,0,22.638,27.28467a2.0537,2.0537,0,0,0,1.4873-.61133l0.7915,1.2832a3.5452,3.5452,0,0,1-2.48242.75488c-2.13477,0-3.22656-1.19922-3.22656-3.5376,0-2.19482,1.22363-3.502,3.17822-3.502a2.53276,2.53276,0,0,1,2.72266,2.74658A8.147,8.147,0,0,1,25.02472,25.62988Zm6.85205,2.6499c0,1.84766-1.29492,2.75879-3.10645,2.75879-1.667,0-2.33887-.46777-2.72168-0.92285l1.01953-1.332a2.12086,2.12086,0,0,0,1.70215.792,1.11743,1.11743,0,0,0,1.33105-1.30762V27.92041H30.0545a2.02328,2.02328,0,0,1-1.332.38379c-1.40332,0-2.66211-.69629-2.66211-3.13037a3.149,3.149,0,0,1,3.29785-3.4541,6.04181,6.04181,0,0,1,2.51855.40771v6.15234Zm3.49414,0.30078H33.55939V21.80371h1.81152v6.77686Zm-0.93555-7.52051a1.02057,1.02057,0,0,1-1.03125-1.019A1.04976,1.04976,0,1,1,34.43536,21.06006Zm6.77734,2.44678a4.27044,4.27044,0,0,0-.7793-0.06006,2.64362,2.64362,0,0,0-1.582.54v4.59375h-1.7998V21.80371h1.415l0.37207,0.99561h0.04785a1.8027,1.8027,0,0,1,1.751-1.13965,2.83852,2.83852,0,0,1,.5752.06006v1.78711Z" style="fill:#00b7a6"/><path d="M27.85919,25.10205c0,1.39063.47949,1.73828,1.2832,1.73828a1.29308,1.29308,0,0,0,.94727-0.34766V23.26709A2.146,2.146,0,0,0,29.3465,23.147C28.39825,23.147,27.85919,23.80664,27.85919,25.10205Z" style="fill:#00b7a6"/></svg>