<?xml version="1.0" encoding="utf-8"?>
<!-- Generator: Adobe Illustrator 19.2.1, SVG Export Plug-In . SVG Version: 6.00 Build 0)  -->
<svg version="1.1" id="a676931f-d448-4214-bb93-699dfe3b9325"
	 xmlns="http://www.w3.org/2000/svg" xmlns:xlink="http://www.w3.org/1999/xlink" x="0px" y="0px" viewBox="0 0 50 80"
	 style="enable-background:new 0 0 50 80;" xml:space="preserve">
<style type="text/css">
	.st0{fill:#E3DFDF;}
</style>
<title>Untitled-8</title>
<path class="st0" d="M24.9,13.8c3.7,0,6.6-3,6.6-6.6c0-3.7-3-6.6-6.6-6.6c-3.7,0-6.6,3-6.6,6.6C18.3,10.8,21.2,13.8,24.9,13.8
	C24.9,13.8,24.9,13.8,24.9,13.8z"/>
<path class="st0" d="M39.2,22.6c0,0,0.4-7.4-7.4-7.4H18.2c-7.6,0-7.5,6.8-7.5,7.4v21c0.2,1.3,1.3,2.3,2.6,2.4
	c1.3-0.1,2.4-1.1,2.5-2.4l5.5,33.5c0.2,1.7,1.4,2.3,2.9,2.3h1.5c1.4,0.2,2.7-0.8,2.9-2.2c0-0.1,0-0.1,0-0.2l5.6-33.5
	c0.1,1.3,1.2,2.4,2.5,2.4c1.3-0.1,2.4-1.1,2.6-2.4L39.2,22.6z"/>
</svg>
