<?xml version="1.0" encoding="utf-8"?>
<!-- Generator: Adobe Illustrator 19.2.1, SVG Export Plug-In . SVG Version: 6.00 Build 0)  -->
<svg version="1.1" id="c4c91c31-6863-4db7-b186-e4f9e7425c79"
	 xmlns="http://www.w3.org/2000/svg" xmlns:xlink="http://www.w3.org/1999/xlink" x="0px" y="0px" viewBox="0 0 59 59"
	 style="enable-background:new 0 0 59 59;" xml:space="preserve">
<style type="text/css">
	.st0{fill:#43C2A7;}
	.st1{fill:#8BD5BB;}
</style>
<title>Untitled-9</title>
<rect class="st0" width="59" height="59"/>
<path class="st1" d="M38.7,43.6c-0.9,0-1.6-0.7-1.6-1.6c0,0,0,0,0,0V17.1c0-0.9,0.7-1.6,1.6-1.6c0.9,0,1.6,0.7,1.6,1.6v24.9
	C40.3,42.8,39.6,43.6,38.7,43.6C38.7,43.6,38.7,43.6,38.7,43.6z"/>
<path class="st1" d="M29.5,43.6c-0.9,0-1.6-0.7-1.6-1.6c0,0,0,0,0,0V17.1c0-0.9,0.7-1.6,1.6-1.6c0.9,0,1.6,0.7,1.6,1.6c0,0,0,0,0,0
	v24.9C31.1,42.8,30.4,43.6,29.5,43.6C29.5,43.6,29.5,43.6,29.5,43.6z"/>
<path class="st1" d="M20.3,43.6c-0.9,0-1.6-0.7-1.6-1.6c0,0,0,0,0,0V17.1c0-0.9,0.7-1.6,1.6-1.6s1.6,0.7,1.6,1.6v24.9
	C21.9,42.8,21.2,43.6,20.3,43.6C20.3,43.6,20.3,43.6,20.3,43.6z"/>
</svg>
