<svg id="5683ecc1-f9c1-44b4-ac80-c74948389248" data-name="Layer 1" xmlns="http://www.w3.org/2000/svg" width="20" height="20" viewBox="0 0 20 20"><title>345345</title><path d="M15.57868,1.00408A7.814,7.814,0,0,0,9.32117,4.78084a30.06489,30.06489,0,0,0-3.09765,5.89377,47.16345,47.16345,0,0,0-2.80048,6.762c-0.45614,1.35967,1.59538,2.24649,2.05589.881a54.17532,54.17532,0,0,1,1.99769-5.131c0.75876,1.69651,1.52881,3.38756,2.356,5.05133,0.63947,1.29019,2.56878.15786,1.92932-1.12834C10.9111,15.396,10.121,13.657,9.3408,11.91062c0.01019-.03382.02292-0.06656,0.0342-0.0993a0.92053,0.92053,0,0,0,.43067.01855q1.788-.33665,3.57634-0.67074a0.90579,0.90579,0,0,0,.62347-1.09961,5.5807,5.5807,0,0,0-1.95076-3.149,3.12448,3.12448,0,0,0-1.13234-1.324,6.19238,6.19238,0,0,1,5.027-2.83321c1.14688-.10112.76459-1.84856-0.37066-1.74925h0Zm-4.34386,7.603A4.13672,4.13672,0,0,1,11.9696,9.6103l-1.73071.32409a9.90715,9.90715,0,0,1,.99594-1.32731h0Zm0,0" style="fill:#7f4ab7"/><path d="M15.23749,5.54944a1.53519,1.53519,0,1,1-1.53465-1.53465,1.53446,1.53446,0,0,1,1.53465,1.53465h0Zm0,0" style="fill:#7f4ab7"/></svg>