<svg id="a4521eb6-7f75-4362-bf98-48c073d918cf" data-name="Layer 1" xmlns="http://www.w3.org/2000/svg" width="20" height="20" viewBox="0 0 20 20"><title>kjkl</title><path d="M16.36127,3.63867A8.66908,8.66908,0,0,0,10,1,8.66908,8.66908,0,0,0,3.63873,3.63867,8.66981,8.66981,0,0,0,1,10a8.66966,8.66966,0,0,0,2.63873,6.36127A8.66914,8.66914,0,0,0,10,19a8.66914,8.66914,0,0,0,6.36127-2.63873A8.66862,8.66862,0,0,0,19,10,8.66877,8.66877,0,0,0,16.36127,3.63867Zm-0.38437,8.7314a10.338,10.338,0,0,0-5.05721-2.0229l0.16411,1.73932a2.43932,2.43932,0,1,1-2.16734,0l0.16411-1.73932a10.76935,10.76935,0,0,0-5.05748,2.0229,6.33848,6.33848,0,0,1-.45958-2.39068,6.20126,6.20126,0,0,1,1.885-4.55157,6.20193,6.20193,0,0,1,4.55171-1.885,6.20133,6.20133,0,0,1,4.55144,1.885,6.2023,6.2023,0,0,1,1.885,4.55157A6.4271,6.4271,0,0,1,15.9769,12.37006Z" style="fill:#e2376e"/></svg>