<svg id="dac2ad51-a2fc-43c7-a044-2cbca7e746f0" data-name="Layer 1" xmlns="http://www.w3.org/2000/svg" width="20" height="20" viewBox="0 0 20 20"><title>dvdv</title><path d="M16.36725,3.63355a9.00412,9.00412,0,1,0-.00085,12.7329,9.01408,9.01408,0,0,0,.00085-12.7329h0ZM6.64175,7.56316A1.05193,1.05193,0,1,1,7.694,8.61563,1.05225,1.05225,0,0,1,6.64175,7.56316h0Zm4.77163,0a1.05246,1.05246,0,1,1,1.05246,1.05246,1.05284,1.05284,0,0,1-1.05246-1.05246h0Zm2.48764,4.3102a4.20134,4.20134,0,0,1-3.89079,2.48277,4.17232,4.17232,0,0,1-3.91477-2.49529,0.50922,0.50922,0,0,1,.94066-0.39035,3.15923,3.15923,0,0,0,2.97411,1.868,3.1865,3.1865,0,0,0,2.95691-1.86881,0.5087,0.5087,0,1,1,.93388.40371h0Zm0,0" style="fill:#ffd057"/></svg>