<svg id="a9707b40-cf78-42e9-abd5-b57f04d4c316" data-name="Layer 1" xmlns="http://www.w3.org/2000/svg" width="26" height="26" viewBox="0 0 26 26"><title>456456</title><path d="M22.32166,2.4322H17.14029l-0.311-1.43951A0.62506,0.62506,0,0,0,16.21863.5H9.78026a0.6253,0.6253,0,0,0-.61063.49269L8.85819,2.4322h-5.181a0.90917,0.90917,0,0,0-.90877.90988V24.5904a0.90965,0.90965,0,0,0,.90877.9096H22.32166a0.91042,0.91042,0,0,0,.90988-0.9096V3.34208A0.90994,0.90994,0,0,0,22.32166,2.4322ZM8.32038,21.62308a1.364,1.364,0,1,1,1.364-1.364A1.36413,1.36413,0,0,1,8.32038,21.62308Zm0-5.45736a1.36389,1.36389,0,1,1,1.364-1.36407A1.364,1.364,0,0,1,8.32038,16.16572Zm2.895-8.75878L8.82823,11.27163a0.90911,0.90911,0,0,1-.70671.42943c-0.02281.0016-.04478,0.00271-0.06682,0.00271a0.90814,0.90814,0,0,1-.695-0.323L6.03259,9.80821A0.90946,0.90946,0,0,1,7.42294,8.63542L7.94039,9.24785l1.72792-2.7964A0.90917,0.90917,0,0,1,11.21538,7.40694Zm8.05477,13.76092H13.05635a0.90947,0.90947,0,1,1,0-1.81894h6.21379A0.90947,0.90947,0,1,1,19.27014,21.16786Zm0-5.45632H13.05635a0.90985,0.90985,0,1,1,0-1.8197h6.21379A0.90985,0.90985,0,0,1,19.27014,15.71154Zm0-5.58036H13.05635a0.90936,0.90936,0,1,1,0-1.81873h6.21379A0.90936,0.90936,0,1,1,19.27014,10.13118Z" style="fill:#b4b1b0"/></svg>