<?xml version="1.0" encoding="utf-8"?>
<!-- Generator: Adobe Illustrator 19.2.1, SVG Export Plug-In . SVG Version: 6.00 Build 0)  -->
<svg version="1.1" id="_x32_877901f-3070-452a-b4af-074ba80ec1f6"
	 xmlns="http://www.w3.org/2000/svg" xmlns:xlink="http://www.w3.org/1999/xlink" x="0px" y="0px" viewBox="0 0 20 20"
	 style="enable-background:new 0 0 20 20;" xml:space="preserve">
<style type="text/css">
	.st0{fill:#FF873F;}
</style>
<title>1111</title>
<g>
	<path class="st0" d="M12.3,11.5h4.6V8C16.4,9.7,14.7,10.9,12.3,11.5C12.3,11.5,12.3,11.5,12.3,11.5L12.3,11.5z"/>
	<path class="st0" d="M7.5,17.5h1V15c0-0.3,0.2-0.5,0.5-0.5c0.3,0,0.5,0.2,0.5,0.5v2.5h1.1v-3.7c0-0.3,0.2-0.5,0.5-0.5
		c0.3,0,0.5,0.2,0.5,0.5v3.7h1.1V15c0-0.3,0.2-0.5,0.5-0.5c0.3,0,0.5,0.2,0.5,0.5v2.5H15v-3.7c0-0.3,0.2-0.5,0.5-0.5
		c0.3,0,0.5,0.2,0.5,0.5v3.7h1.1V15c0-0.3,0.2-0.5,0.5-0.5c0.3,0,0.5,0.2,0.5,0.5v2.5h1c0.4,0,0.8-0.3,0.8-0.8c0,0,0,0,0,0v-4.2
		c0-0.4-0.3-0.7-0.7-0.7c0,0,0,0-0.1,0c0,0-8.1,0.1-11.1-0.1c-1.6,0-3.1-0.5-4.5-1.3C3,10.1,2.4,9.7,2,9.1l0,0v5.2
		C2,16,4.5,17.5,7.5,17.5L7.5,17.5L7.5,17.5z"/>
	<path class="st0" d="M9,11.1c0.1,0,0.2,0,0.3,0c3,0,5.6-1.1,6.7-2.6c0.4-0.5,0.6-1.1,0.6-1.7c0-2.4-3.3-4.3-7.3-4.3S2,4.4,2,6.8
		C2,7.4,2.2,8,2.6,8.5C3.7,10,6.1,11.1,9,11.1L9,11.1L9,11.1z M9.3,4.9c1.8,0,3.2,0.9,3.2,1.9c0,0.2,0,0.3-0.1,0.5
		c0,0.1-0.1,0.2-0.2,0.3c-0.8,0.8-1.9,1.2-3,1.2c-0.1,0-0.2,0-0.3,0c-1,0-2-0.4-2.7-1.2C6.1,7.4,6,7.1,6,6.8C6,5.8,7.5,4.9,9.3,4.9
		L9.3,4.9z"/>
</g>
</svg>
