<svg id="1540df56-0057-4c1d-a97c-89f26a60fd82" data-name="Layer 1" xmlns="http://www.w3.org/2000/svg" width="28" height="28" viewBox="0 0 28 28"><title>que</title><path d="M14,3A11,11,0,1,0,25,14,11,11,0,0,0,14,3Zm0.27993,18.5024a1.5638,1.5638,0,0,1-1.617-1.596,1.64266,1.64266,0,0,1,1.63752-1.69957A1.648,1.648,0,1,1,14.27993,21.50236Zm1.86548-7.64907L13.45072,16.2165A1.48287,1.48287,0,0,1,12.29,14.78637c0-1.92787,3.503-2.59083,3.503-4.72574a1.54331,1.54331,0,0,0-1.72048-1.6173A3.15165,3.15165,0,0,0,11.62672,9.687l-1.679-1.90661A5.74383,5.74383,0,0,1,14.32141,6.246c2.52878,0,4.06278,1.24365,4.06278,3.441C18.38419,11.42837,17.74145,12.465,16.14541,13.85328Z" style="fill:#ff873e"/></svg>