<svg id="a2609f0a-de9e-442f-8684-e6804d78e4f4" data-name="Layer 1" xmlns="http://www.w3.org/2000/svg" width="28" height="28" viewBox="0 0 28 28"><title>dfgdfg</title><path d="M2.07133,19.4969a1.31843,1.31843,0,0,0,.24677,2.61347,1.28258,1.28258,0,0,0,.24958-0.02475l5.4297-1.042a1.32748,1.32748,0,0,0,.7844-0.47442l2.33095-2.93977-0.77891-.39756a2.10484,2.10484,0,0,1-1.11327-1.45619L7.02124,18.54807Zm0,0" style="fill:#00b7a6"/><path d="M24.30034,5.14379A2.89037,2.89037,0,1,1,21.41,2.25342a2.89041,2.89041,0,0,1,2.89037,2.89037h0Zm0,0" style="fill:#00b7a6"/><path d="M15.1027,4.41979a1.21134,1.21134,0,0,0-.89673-0.436,1.54733,1.54733,0,0,0-.34546.04394L8.8996,5.20405a1.27464,1.27464,0,0,0,.29353,2.51478A1.211,1.211,0,0,0,9.4893,7.68308l4.2258-1.0009c0.27423,0.30436,1.64818,1.79349,1.89763,2.05672q-2.6201,2.80552-5.24048,5.60805c-0.02746.03013-.05207,0.06026-0.07672,0.0905a1.36911,1.36911,0,0,0,.414,2.05672l0.92967,0.47442,4.42609,2.25958-2.78072,4.50565a1.32125,1.32125,0,0,0,.4305,1.81543,1.30572,1.30572,0,0,0,.69106.19734,1.32144,1.32144,0,0,0,1.12437-.62517l3.532-5.72319a1.31973,1.31973,0,0,0-.532-1.87017l-3.628-1.84556,3.81456-4.08063,2.8794,2.44074a1.26677,1.26677,0,0,0,.82269.30155,1.283,1.283,0,0,0,.86931-0.34l3.30439-3.07959A1.27389,1.27389,0,0,0,24.8598,9.057l-2.47354,2.30085c-0.00271.00267-6.20028-5.82737-7.28356-6.9381h0Zm0,0" style="fill:#00b7a6"/></svg>