<svg id="ffbbc0d5-2551-4379-8408-26fd720db968" data-name="Layer 1" xmlns="http://www.w3.org/2000/svg" width="130" height="50" viewBox="0 0 130 50"><title>Untitled-4</title><path d="M61.74512,30.31836a1.97727,1.97727,0,0,0,2.19678,1.96973,3.68676,3.68676,0,0,0,3.05615-1.6416V27.89355C63.94189,27.74219,61.74512,28.5,61.74512,30.31836Z" style="fill:#00b7a6"/><path d="M30.7334,30.31836a1.97727,1.97727,0,0,0,2.19678,1.96973,3.68514,3.68514,0,0,0,3.05566-1.6416V27.89355C32.93018,27.74219,30.7334,28.5,30.7334,30.31836Z" style="fill:#00b7a6"/><path d="M120.21515,2.25H9.78485A4.40967,4.40967,0,0,0,5.37518,6.65967V43.34033A4.4097,4.4097,0,0,0,9.78485,47.75h110.4303a4.4097,4.4097,0,0,0,4.40967-4.40967V6.65967A4.40967,4.40967,0,0,0,120.21515,2.25ZM19.77295,34.25781a8.48231,8.48231,0,0,1-5.73242-1.94531l1.48975-2.0957a6.82551,6.82551,0,0,0,4.52051,1.793c2.14648,0,3.25781-1.13672,3.25781-2.57617,0-3.66113-8.334-2.90332-8.334-8.48486,0-2.77783,2.34863-4.89893,5.68213-4.89893a7.074,7.074,0,0,1,4.79834,1.6665l-1.56592,1.94482A4.9988,4.9988,0,0,0,20.48,18.32275c-1.84326,0-2.9292,1.03516-2.9292,2.44922,0,3.7124,8.35889,2.98,8.35889,8.51025C25.90967,31.93457,23.76318,34.25781,19.77295,34.25781Zm20.17773-.37891a2.26025,2.26025,0,0,1-1.06055.252,2.504,2.504,0,0,1-2.52539-1.6416H36.26367a4.73642,4.73642,0,0,1-3.96484,1.76855,3.75619,3.75619,0,0,1-4.04-3.71289c0-3.13086,2.97949-4.62109,7.72705-4.49512V24.66113c0-2.04541-1.00977-2.65137-2.65137-2.65137a3.171,3.171,0,0,0-2.9292,1.64111l-1.793-1.38867a5.577,5.577,0,0,1,4.77246-2.374c3.13184,0,4.94971,1.28809,4.94971,4.34375v6.061c0,1.11035.35352,1.793,1.23779,1.793h0.37842v1.793Zm7.77881,0a4.8917,4.8917,0,0,1-1.76758.32813c-2.02051,0-3.05566-1.1875-3.05566-3.15723V14.8374h2.47461V30.39355c0,1.16211.4292,1.6416,1.36377,1.6416a2.75835,2.75835,0,0,0,.98486-0.20215v2.0459Zm6.6416,0.252c-2.32324,0-3.71191-1.21191-3.71191-4.04V22.08545H48.68945V20.51953l1.96973-.50488,0.80811-3.51025h1.6665v3.61133h3.7124v1.96973h-3.7124V30.04a1.7045,1.7045,0,0,0,1.84326,1.96973,3.52483,3.52483,0,0,0,2.0708-.53027l0.65674,1.94434A6.04335,6.04335,0,0,1,54.37109,34.13086Zm16.5918-.252a2.263,2.263,0,0,1-1.06055.252,2.5036,2.5036,0,0,1-2.52539-1.6416H67.27539a4.73568,4.73568,0,0,1-3.96484,1.76855,3.75619,3.75619,0,0,1-4.04-3.71289c0-3.13086,2.97949-4.62109,7.72754-4.49512V24.66113c0-2.04541-1.01025-2.65137-2.65186-2.65137a3.171,3.171,0,0,0-2.9292,1.64111l-1.793-1.38867a5.577,5.577,0,0,1,4.77246-2.374c3.13184,0,4.9502,1.28809,4.9502,4.34375v6.061c0,1.11035.35352,1.793,1.2373,1.793h0.37891v1.793ZM81.2168,22.54a6.65258,6.65258,0,0,0-1.56641-.20215,4.04,4.04,0,0,0-3.3584,1.59082V34.00488H73.81738V20.11572h1.91895l0.53027,1.69189h0.10156a3.87226,3.87226,0,0,1,3.50977-1.94434,5.83483,5.83483,0,0,1,1.33887.126V22.54Zm32.49878,3.30585L92.051,35.90448s-0.87469-.09229-0.01648-1.53107c1.5293-2.56378,3.84882-6.82361,3.84882-9.18237,0-2.53485-2.28473-6.68164-3.81592-9.1897-0.69324-1.13556,0-1.51453,0-1.51453L113.7215,24.54907a0.66328,0.66328,0,0,1,.35028.642A0.734,0.734,0,0,1,113.71558,25.84589Z" style="fill:#00b7a6"/></svg>